<?xml version="1.0" standalone="no"?>
<!DOCTYPE svg PUBLIC "-//W3C//DTD SVG 20010904//EN"
 "http://www.w3.org/TR/2001/REC-SVG-20010904/DTD/svg10.dtd">
<svg version="1.0" xmlns="http://www.w3.org/2000/svg"
 width="64.000000pt" height="64.000000pt" viewBox="0 0 64.000000 64.000000"
 preserveAspectRatio="xMidYMid meet">
<metadata>
Created by potrace 1.16, written by Peter Selinger 2001-2019
</metadata>
<g transform="translate(0.000000,64.000000) scale(0.100000,-0.100000)"
fill="#000000" stroke="none">
<path d="M371 612 c38 -19 63 -42 84 -74 17 -26 42 -52 56 -58 115 -50 147
-241 56 -338 -30 -32 -90 -62 -125 -62 -17 0 -37 -9 -48 -21 -10 -12 -32 -30
-49 -40 -30 -19 -30 -19 133 -19 l162 0 0 320 0 320 -161 0 -161 0 53 -28z"/>
<path d="M0 162 l0 -162 113 0 112 0 -30 19 c-48 29 -67 57 -72 105 -5 37 -12
51 -38 71 -18 13 -45 48 -59 77 l-26 52 0 -162z"/>
</g>
</svg>
